<mxfile host="Electron" agent="Mozilla/5.0 (Macintosh; Intel Mac OS X 10_15_7) AppleWebKit/537.36 (KHTML, like Gecko) draw.io/24.7.17 Chrome/128.0.6613.36 Electron/32.0.1 Safari/537.36" version="24.7.17">
  <diagram name="Страница — 1" id="Xdm1ZmJCZ6rRrEZky44v">
    <mxGraphModel dx="1114" dy="800" grid="1" gridSize="10" guides="1" tooltips="1" connect="1" arrows="1" fold="1" page="1" pageScale="1" pageWidth="1169" pageHeight="827" math="0" shadow="0">
      <root>
        <mxCell id="0" />
        <mxCell id="1" parent="0" />
        <mxCell id="ZY01xTEnG0W3LopnAmA3-1" value="Система оповещений&lt;div&gt;TakLikParking&lt;/div&gt;" style="whiteSpace=wrap;html=1;aspect=fixed;" vertex="1" parent="1">
          <mxGeometry x="490" y="180" width="310" height="310" as="geometry" />
        </mxCell>
        <mxCell id="ZY01xTEnG0W3LopnAmA3-2" value="" style="endArrow=classic;html=1;rounded=0;" edge="1" parent="1">
          <mxGeometry relative="1" as="geometry">
            <mxPoint x="150" y="260" as="sourcePoint" />
            <mxPoint x="490" y="260" as="targetPoint" />
          </mxGeometry>
        </mxCell>
        <mxCell id="ZY01xTEnG0W3LopnAmA3-3" value="GetVideo()" style="edgeLabel;resizable=0;html=1;;align=center;verticalAlign=middle;" connectable="0" vertex="1" parent="ZY01xTEnG0W3LopnAmA3-2">
          <mxGeometry relative="1" as="geometry" />
        </mxCell>
        <mxCell id="ZY01xTEnG0W3LopnAmA3-4" value="" style="endArrow=classic;html=1;rounded=0;exitX=-0.01;exitY=0.674;exitDx=0;exitDy=0;exitPerimeter=0;" edge="1" parent="1" source="ZY01xTEnG0W3LopnAmA3-1">
          <mxGeometry relative="1" as="geometry">
            <mxPoint x="270" y="390" as="sourcePoint" />
            <mxPoint x="150" y="390" as="targetPoint" />
          </mxGeometry>
        </mxCell>
        <mxCell id="ZY01xTEnG0W3LopnAmA3-5" value="Message" style="edgeLabel;resizable=0;html=1;;align=center;verticalAlign=middle;" connectable="0" vertex="1" parent="ZY01xTEnG0W3LopnAmA3-4">
          <mxGeometry relative="1" as="geometry" />
        </mxCell>
        <mxCell id="ZY01xTEnG0W3LopnAmA3-8" value="" style="endArrow=classic;html=1;rounded=0;" edge="1" parent="1">
          <mxGeometry relative="1" as="geometry">
            <mxPoint x="150" y="310" as="sourcePoint" />
            <mxPoint x="490" y="310" as="targetPoint" />
          </mxGeometry>
        </mxCell>
        <mxCell id="ZY01xTEnG0W3LopnAmA3-9" value="SubscribeEvent()" style="edgeLabel;resizable=0;html=1;;align=center;verticalAlign=middle;" connectable="0" vertex="1" parent="ZY01xTEnG0W3LopnAmA3-8">
          <mxGeometry relative="1" as="geometry" />
        </mxCell>
        <mxCell id="ZY01xTEnG0W3LopnAmA3-10" value="" style="endArrow=classic;html=1;rounded=0;entryX=0;entryY=0.523;entryDx=0;entryDy=0;entryPerimeter=0;" edge="1" parent="1" target="ZY01xTEnG0W3LopnAmA3-1">
          <mxGeometry relative="1" as="geometry">
            <mxPoint x="150" y="340" as="sourcePoint" />
            <mxPoint x="500" y="320" as="targetPoint" />
          </mxGeometry>
        </mxCell>
        <mxCell id="ZY01xTEnG0W3LopnAmA3-11" value="UnsubscribeEvent()" style="edgeLabel;resizable=0;html=1;;align=center;verticalAlign=middle;" connectable="0" vertex="1" parent="ZY01xTEnG0W3LopnAmA3-10">
          <mxGeometry relative="1" as="geometry" />
        </mxCell>
        <mxCell id="ZY01xTEnG0W3LopnAmA3-17" value="" style="endArrow=classic;html=1;rounded=0;entryX=0.006;entryY=0.068;entryDx=0;entryDy=0;entryPerimeter=0;" edge="1" parent="1" target="ZY01xTEnG0W3LopnAmA3-1">
          <mxGeometry relative="1" as="geometry">
            <mxPoint x="160" y="200" as="sourcePoint" />
            <mxPoint x="260" y="200" as="targetPoint" />
          </mxGeometry>
        </mxCell>
        <mxCell id="ZY01xTEnG0W3LopnAmA3-18" value="RegisterVideoSource()" style="edgeLabel;resizable=0;html=1;;align=center;verticalAlign=middle;" connectable="0" vertex="1" parent="ZY01xTEnG0W3LopnAmA3-17">
          <mxGeometry relative="1" as="geometry" />
        </mxCell>
      </root>
    </mxGraphModel>
  </diagram>
</mxfile>
